<svg xmlns="http://www.w3.org/2000/svg" xmlns:xlink="http://www.w3.org/1999/xlink" width="500" zoomAndPan="magnify" viewBox="0 0 375 374.999991" height="500" preserveAspectRatio="xMidYMid meet" version="1.0"><defs><clipPath id="a5182bc758"><path d="M 227 0.75 L 374 0.75 L 374 373 L 227 373 Z M 227 0.75 " clip-rule="nonzero"/></clipPath><clipPath id="1d3be781a2"><path d="M 2 0.75 L 185 0.75 L 185 169 L 2 169 Z M 2 0.75 " clip-rule="nonzero"/></clipPath></defs><path fill="#ffa500" d="M 25.527344 205.472656 L 161.359375 205.472656 C 174.140625 205.472656 184.554688 216.027344 184.554688 228.804688 L 184.554688 350.472656 C 184.554688 363.25 174.140625 373.667969 161.359375 373.667969 L 25.527344 373.667969 C 12.75 373.667969 2.195312 363.25 2.195312 350.472656 L 2.195312 228.804688 C 2.195312 216.027344 12.75 205.472656 25.527344 205.472656 Z M 42.332031 255.195312 L 59 238.527344 C 60.945312 236.582031 64.277344 236.582031 66.222656 238.527344 L 93.445312 265.75 L 120.667969 238.527344 C 122.609375 236.582031 125.804688 236.582031 127.75 238.527344 L 144.554688 255.195312 C 146.5 257.277344 146.5 260.472656 144.554688 262.417969 L 117.332031 289.640625 L 144.554688 316.859375 C 146.5 318.804688 146.5 322 144.554688 323.945312 L 127.75 340.75 C 125.804688 342.695312 122.609375 342.695312 120.667969 340.75 L 93.445312 313.527344 L 66.222656 340.75 C 64.277344 342.695312 60.945312 342.695312 59 340.75 L 42.332031 323.945312 C 40.390625 322 40.390625 318.804688 42.332031 316.859375 L 69.554688 289.640625 L 42.332031 262.417969 C 40.390625 260.472656 40.390625 257.277344 42.332031 255.195312 Z M 42.332031 255.195312 " fill-opacity="1" fill-rule="evenodd"/><g clip-path="url(#a5182bc758)"><path fill="#a6a6a6" d="M 250.527344 0.75 L 350.390625 0.75 C 363.167969 0.75 373.722656 11.167969 373.722656 23.945312 L 373.722656 349.640625 C 373.722656 362.417969 363.167969 372.832031 350.390625 372.832031 L 250.527344 372.832031 C 237.75 372.832031 227.332031 362.417969 227.332031 349.640625 L 227.332031 23.945312 C 227.332031 11.167969 237.75 0.75 250.527344 0.75 Z M 245.667969 158.527344 L 245.667969 142.832031 C 245.667969 139.640625 247.890625 137 250.804688 137 L 350.25 137 C 353.027344 137 355.390625 139.640625 355.390625 142.832031 L 355.390625 158.527344 C 355.390625 161.722656 353.027344 164.359375 350.25 164.359375 L 250.804688 164.359375 C 247.890625 164.359375 245.667969 161.722656 245.667969 158.527344 Z M 245.667969 219.082031 L 245.667969 203.527344 C 245.667969 200.332031 247.890625 197.695312 250.804688 197.695312 L 350.25 197.695312 C 353.027344 197.695312 355.390625 200.332031 355.390625 203.527344 L 355.390625 219.082031 C 355.390625 222.277344 353.027344 224.917969 350.25 224.917969 L 250.804688 224.917969 C 247.890625 224.917969 245.667969 222.277344 245.667969 219.082031 Z M 245.667969 219.082031 " fill-opacity="1" fill-rule="evenodd"/></g><g clip-path="url(#1d3be781a2)"><path fill="#ffa500" d="M 25.527344 0.75 L 161.359375 0.75 C 174.140625 0.75 184.554688 11.167969 184.554688 23.945312 L 184.554688 145.609375 C 184.554688 158.390625 174.140625 168.945312 161.359375 168.945312 L 25.527344 168.945312 C 12.75 168.945312 2.195312 158.390625 2.195312 145.609375 L 2.195312 23.945312 C 2.195312 11.167969 12.75 0.75 25.527344 0.75 Z M 81.5 24.359375 L 105.25 24.359375 C 108.027344 24.359375 110.25 26.722656 110.25 29.5 L 110.25 67.972656 L 148.859375 67.972656 C 151.640625 67.972656 153.859375 70.195312 153.859375 72.972656 L 153.859375 96.722656 C 153.859375 99.5 151.640625 101.722656 148.859375 101.722656 L 110.25 101.722656 L 110.25 140.195312 C 110.25 142.972656 108.027344 145.332031 105.25 145.332031 L 81.5 145.332031 C 78.722656 145.332031 76.5 142.972656 76.5 140.195312 L 76.5 101.722656 L 38.027344 101.722656 C 35.25 101.722656 33.027344 99.5 33.027344 96.722656 L 33.027344 72.972656 C 33.027344 70.195312 35.25 67.972656 38.027344 67.972656 L 76.5 67.972656 L 76.5 29.5 C 76.5 26.722656 78.722656 24.359375 81.5 24.359375 Z M 81.5 24.359375 " fill-opacity="1" fill-rule="evenodd"/></g></svg>